<?xml version="1.0" encoding="UTF-8"?>
<svg width="642px" height="125px" viewBox="0 0 642 125" version="1.1" xmlns="http://www.w3.org/2000/svg" xmlns:xlink="http://www.w3.org/1999/xlink">
    <title>codecov-logo</title>
    <g id="Logos" stroke="none" stroke-width="1" fill="none" fill-rule="evenodd">
        <g id="codecov-logo" fill="#FF0077" fill-rule="nonzero">
            <path d="M204.968493,31.3488372 C214.184247,31.3488372 221.556849,34.4186047 227.700685,40.7627907 L228.110274,41.172093 L236.302055,33.1906977 L236.09726,32.7813953 C228.724658,24.5953488 217.460959,20.0930233 204.558904,20.0930233 C179.164384,20.0930233 160.528082,37.6930233 160.528082,62.0465116 C160.528082,86.4 178.959589,104 204.35411,104 C217.256164,104 228.519863,99.4976744 236.09726,91.1069767 L236.302055,90.6976744 L228.110274,82.7162791 L227.700685,83.1255814 C221.556849,89.4697674 213.979452,92.744186 204.968493,92.744186 C186.536986,92.744186 173.225342,79.8511628 173.225342,62.0465116 C173.225342,44.2418605 186.741781,31.3488372 204.968493,31.3488372 M271.321918,93.3581395 C259.239041,93.3581395 250.842466,84.5581395 250.842466,72.2790698 C250.842466,59.7953488 259.239041,51.2 271.321918,51.2 C283.404795,51.2 291.80137,59.7953488 291.80137,72.2790698 C291.80137,84.7627907 283.404795,93.3581395 271.321918,93.3581395 M271.321918,40.5581395 C252.276027,40.5581395 238.554795,53.8604651 238.554795,72.2790698 C238.554795,90.6976744 252.276027,104 271.321918,104 C290.367808,104 304.089041,90.6976744 304.089041,72.2790698 C304.089041,53.8604651 290.163014,40.5581395 271.321918,40.5581395 M340.952055,93.3581395 C328.869178,93.3581395 320.267808,84.5581395 320.267808,72.0744186 C320.267808,59.5906977 328.664384,50.7906977 340.952055,50.7906977 C353.034932,50.7906977 361.431507,59.5906977 361.431507,72.0744186 C361.431507,84.5581395 353.034932,93.3581395 340.952055,93.3581395 Z M361.431507,49.1534884 C356.311644,43.2186047 348.939041,40.1488372 340.132877,40.1488372 C321.291781,40.1488372 308.184932,53.2465116 308.184932,72.0744186 C308.184932,90.9023256 321.291781,104 340.132877,104 C349.143836,104 356.926027,100.52093 361.841096,94.3813953 L361.841096,103.181395 L373.514384,103.181395 L373.514384,16 L361.226712,16 L361.431507,49.1534884 L361.431507,49.1534884 Z M412.834932,50.7906977 C422.869863,50.7906977 430.44726,57.544186 431.880822,67.3674419 L393.993836,67.3674419 C395.222603,57.544186 402.595205,50.7906977 412.834932,50.7906977 M412.834932,40.5581395 C394.813014,40.5581395 381.910959,53.8604651 381.910959,72.2790698 C381.910959,90.9023256 395.427397,104 415.087671,104 C425.327397,104 433.723973,100.52093 439.458219,93.972093 L439.663014,93.7674419 L432.904795,85.9906977 L432.495205,86.4 C428.194521,91.1069767 422.460274,93.5627907 415.292466,93.5627907 C403.823973,93.5627907 395.427397,87.0139535 393.789041,76.5767442 L442.939726,76.5767442 L442.939726,76.1674419 C443.144521,75.144186 443.144521,73.7116279 443.144521,72.6883721 C443.349315,53.655814 430.652055,40.5581395 412.834932,40.5581395 M499.258219,84.7627907 C495.571918,90.2883721 489.837671,93.3581395 482.669863,93.3581395 C470.177397,93.3581395 461.780822,84.7627907 461.780822,72.2790698 C461.780822,59.7953488 470.382192,51.2 482.669863,51.2 C489.837671,51.2 495.571918,54.0651163 499.258219,59.7953488 L499.463014,60.2046512 L508.883562,54.2697674 L508.678767,53.8604651 C503.763699,45.4697674 494.343151,40.5581395 482.874658,40.5581395 C463.623973,40.5581395 449.493151,53.8604651 449.493151,72.2790698 C449.493151,90.6976744 463.623973,104 482.874658,104 C494.343151,104 503.763699,99.0883721 508.678767,90.4930233 L508.883562,90.0837209 L499.463014,84.3534884 L499.258219,84.7627907 L499.258219,84.7627907 Z M545.746575,93.3581395 C533.663699,93.3581395 525.267123,84.5581395 525.267123,72.2790698 C525.267123,59.7953488 533.663699,51.2 545.746575,51.2 C557.829452,51.2 566.226027,59.7953488 566.226027,72.2790698 C566.226027,84.7627907 557.829452,93.3581395 545.746575,93.3581395 M545.746575,40.5581395 C526.700685,40.5581395 512.979452,53.8604651 512.979452,72.2790698 C512.979452,90.6976744 526.700685,104 545.746575,104 C564.792466,104 578.513699,90.6976744 578.513699,72.2790698 C578.513699,53.8604651 564.587671,40.5581395 545.746575,40.5581395 M630.121918,40.5581395 L609.232877,88.4465116 L588.753425,40.5581395 L576.260959,40.5581395 L603.089041,101.748837 L603.293836,101.953488 L615.171918,101.953488 L642,40.5581395 L630.121918,40.5581395 Z M65.1447661,0 C29.2427617,0 0,28.9329619 0,64.2311754 L0,64.5205051 L11.0022272,70.8857567 L11.2917595,70.8857567 C18.2405345,66.2564828 26.636971,64.5205051 35.0334076,65.9671532 C40.8240535,67.1244716 46.325167,69.7284382 50.6681514,73.7790529 L52.6948775,75.5150306 L53.8530067,73.2003936 C55.0111359,70.8857567 56.169265,68.8604494 57.3273942,66.835142 C57.9064588,65.9671532 58.4855234,65.3884939 59.064588,64.5205051 L60.2227171,63.073857 L58.7750557,61.9165385 C52.6948775,56.997935 45.4565702,53.5259795 37.6391982,52.0793314 C30.1113586,50.6326833 22.5835189,50.922013 15.6347439,53.2366499 C20.8463252,30.37961 41.1135857,14.1771513 65.1447661,14.1771513 C78.752784,14.1771513 91.4922049,19.3850845 101.046771,28.9329619 C107.995546,35.5875432 112.628062,43.9781021 114.654788,53.2366499 C110.311804,51.7900018 105.679287,51.2113426 101.046771,51.2113426 L100.178174,51.2113426 C98.44098,51.2113426 96.7037862,51.5006722 94.6770601,51.5006722 L94.3875278,51.5006722 C93.8084633,51.5006722 92.9398664,51.7900018 92.3608018,51.7900018 C91.2026726,52.0793314 90.3340757,52.0793314 89.1759465,52.3686611 L88.3073497,52.6579907 C87.4387528,52.9473203 86.5701559,53.2366499 85.701559,53.5259795 L85.4120267,53.5259795 C83.3853007,54.1046388 81.6481069,54.9726276 79.6213808,55.8406165 L79.6213808,55.8406165 C78.752784,56.1299461 77.8841871,56.7086053 77.0155902,57.2872646 L76.7260579,57.2872646 C72.3830735,59.8912312 68.3296214,63.073857 65.1447661,67.1244716 L64.8552339,67.7031309 C63.986637,68.8604494 63.4075724,69.7284382 62.8285078,70.3070974 C62.2494432,70.8857567 61.9599109,71.7537455 61.3808463,72.6217344 L61.091314,73.2003936 C60.5122494,74.0683825 60.2227171,74.9363714 59.9331849,75.5150306 L59.9331849,75.8043602 C59.064588,77.5403379 58.1959911,79.5656453 57.6169265,81.5909526 L57.6169265,81.8802822 C56.169265,86.5095561 55.3006682,91.4281596 55.3006682,96.6360928 L55.3006682,97.214752 C55.3006682,97.7934113 55.3006682,98.6614001 55.3006682,99.2400594 C55.3006682,99.529389 55.3006682,99.8187186 55.3006682,100.108048 C55.3006682,100.397378 55.3006682,100.976037 55.3006682,101.265367 L55.3006682,101.554696 L55.3006682,102.133356 C55.3006682,102.712015 55.5902004,103.580004 55.5902004,104.158663 C57.0378619,111.102574 60.2227171,117.757155 65.1447661,123.833077 L65.4342984,124.122407 L65.7238307,123.833077 C67.7505568,121.51844 72.3830735,114.2852 72.9621381,109.945255 L72.9621381,109.945255 L72.9621381,109.945255 C70.6458797,105.605311 69.4877506,100.686707 69.4877506,96.0574336 C69.4877506,79.8549749 82.2271715,66.2564828 98.7305122,65.3884939 L99.8886414,65.3884939 C106.547884,65.0991643 113.207127,67.1244716 118.708241,70.8857567 L118.997773,70.8857567 L130,64.5205051 L130,64.5205051 L130,64.2311754 C130,47.1607279 123.340757,30.9582692 110.890869,18.8064252 C98.7305122,6.65458124 82.5167038,0 65.1447661,0" id="Shape"></path>
        </g>
    </g>
</svg>