<svg width="3600" height="759" viewBox="0 0 3600 759" fill="none" xmlns="http://www.w3.org/2000/svg">
<rect x="21.0603" y="21.0603" width="716.049" height="716.049" rx="358.025" fill="url(#paint0_linear_808_30)"/>
<rect x="21.0603" y="21.0603" width="716.049" height="716.049" rx="358.025" stroke="url(#paint1_linear_808_30)" stroke-width="42.1206"/>
<g opacity="0.99">
<path d="M310.359 553.673C308.033 553.673 306.35 551.451 306.981 549.211L403.368 206.843C403.794 205.33 405.175 204.284 406.747 204.284H448.631C450.959 204.284 452.642 206.509 452.008 208.749L355.235 551.117C354.808 552.629 353.429 553.673 351.858 553.673H310.359Z" fill="white"/>
<path d="M242.597 467.379C241.658 467.379 240.758 467.003 240.098 466.334L155.827 380.929C154.476 379.56 154.478 377.359 155.832 375.993L240.099 290.97C240.758 290.305 241.656 289.931 242.592 289.931H296.395C299.522 289.931 301.088 293.711 298.877 295.923L218.818 375.982C217.449 377.35 217.447 379.568 218.813 380.94L298.909 461.393C301.113 463.606 299.545 467.379 296.422 467.379H242.597Z" fill="white"/>
<path d="M462.27 467.379C459.15 467.379 457.581 463.614 459.777 461.398L539.528 380.935C540.886 379.564 540.884 377.355 539.523 375.987L459.809 295.917C457.605 293.704 459.173 289.931 462.296 289.931H515.736C516.67 289.931 517.565 290.303 518.224 290.964L602.869 375.987C604.23 377.355 604.233 379.564 602.874 380.935L518.225 466.34C517.566 467.005 516.668 467.379 515.732 467.379H462.27Z" fill="white"/>
</g>
<path d="M1040.85 535.765C1010.07 535.765 983.658 529.234 961.596 516.171C939.534 502.817 922.552 484.384 910.65 460.871C898.749 437.067 892.798 409.634 892.798 378.573C892.798 347.512 898.749 320.08 910.65 296.276C922.552 272.473 939.534 253.894 961.596 240.541C983.658 227.187 1010.07 220.511 1040.85 220.511C1077.42 220.511 1107.32 229.655 1130.54 247.943C1154.06 265.941 1168.72 291.341 1174.52 324.144H1113.13C1109.35 307.598 1101.23 294.68 1088.74 285.391C1076.55 275.811 1060.29 271.021 1039.97 271.021C1011.82 271.021 989.754 280.601 973.788 299.76C957.823 318.919 949.84 345.19 949.84 378.573C949.84 411.957 957.823 438.228 973.788 457.387C989.754 476.256 1011.82 485.69 1039.97 485.69C1060.29 485.69 1076.55 481.336 1088.74 472.627C1101.23 463.628 1109.35 451.291 1113.13 435.615H1174.52C1168.72 466.967 1154.06 491.496 1130.54 509.204C1107.32 526.911 1077.42 535.765 1040.85 535.765ZM1313.12 535.765C1292.22 535.765 1273.35 530.975 1256.52 521.396C1239.97 511.816 1226.76 498.608 1216.89 481.771C1207.31 464.644 1202.52 444.905 1202.52 422.552C1202.52 400.2 1207.46 380.605 1217.33 363.769C1227.2 346.642 1240.41 333.288 1256.95 323.709C1273.79 314.129 1292.66 309.339 1313.56 309.339C1334.17 309.339 1352.75 314.129 1369.3 323.709C1386.13 333.288 1399.34 346.642 1408.92 363.769C1418.79 380.605 1423.72 400.2 1423.72 422.552C1423.72 444.905 1418.79 464.644 1408.92 481.771C1399.34 498.608 1386.13 511.816 1369.3 521.396C1352.46 530.975 1333.73 535.765 1313.12 535.765ZM1313.12 487.432C1327.64 487.432 1340.27 482.062 1351.01 471.321C1361.75 460.29 1367.12 444.034 1367.12 422.552C1367.12 401.071 1361.75 384.96 1351.01 374.219C1340.27 363.188 1327.78 357.673 1313.56 357.673C1298.76 357.673 1285.98 363.188 1275.24 374.219C1264.79 384.96 1259.57 401.071 1259.57 422.552C1259.57 444.034 1264.79 460.29 1275.24 471.321C1285.98 482.062 1298.61 487.432 1313.12 487.432ZM1559.77 535.765C1539.45 535.765 1521.31 530.83 1505.34 520.96C1489.38 511.091 1476.75 497.592 1467.46 480.465C1458.17 463.338 1453.53 443.889 1453.53 422.117C1453.53 400.345 1458.17 381.041 1467.46 364.204C1476.75 347.077 1489.38 333.724 1505.34 324.144C1521.31 314.274 1539.45 309.339 1559.77 309.339C1576.03 309.339 1590.25 312.387 1602.45 318.484C1614.64 324.58 1624.51 333.143 1632.06 344.174V217.027H1687.79V530.54H1638.15L1632.06 499.624C1625.09 509.204 1615.8 517.622 1604.19 524.879C1592.87 532.137 1578.06 535.765 1559.77 535.765ZM1571.53 486.997C1589.53 486.997 1604.19 481.046 1615.51 469.144C1627.12 456.952 1632.93 441.421 1632.93 422.552C1632.93 403.684 1627.12 388.298 1615.51 376.396C1604.19 364.204 1589.53 358.108 1571.53 358.108C1553.82 358.108 1539.16 364.059 1527.55 375.961C1515.94 387.863 1510.13 403.248 1510.13 422.117C1510.13 440.986 1515.94 456.516 1527.55 468.708C1539.16 480.901 1553.82 486.997 1571.53 486.997ZM1836.42 535.765C1814.65 535.765 1795.35 531.121 1778.51 521.831C1761.68 512.542 1748.47 499.479 1738.89 482.642C1729.31 465.805 1724.52 446.356 1724.52 424.294C1724.52 401.942 1729.16 382.057 1738.45 364.64C1748.03 347.222 1761.09 333.724 1777.64 324.144C1794.48 314.274 1814.22 309.339 1836.86 309.339C1858.05 309.339 1876.77 313.984 1893.03 323.273C1909.29 332.563 1921.91 345.335 1930.91 361.592C1940.2 377.557 1944.85 395.41 1944.85 415.15C1944.85 418.343 1944.7 421.681 1944.41 425.165C1944.41 428.648 1944.27 432.277 1943.98 436.051H1779.82C1780.98 452.888 1786.79 466.096 1797.24 475.675C1807.98 485.255 1820.89 490.045 1835.99 490.045C1847.31 490.045 1856.74 487.577 1864.29 482.642C1872.13 477.417 1877.94 470.74 1881.71 462.612H1938.32C1934.25 476.256 1927.43 488.738 1917.85 500.06C1908.56 511.091 1896.95 519.799 1883.02 526.186C1869.37 532.572 1853.84 535.765 1836.42 535.765ZM1836.86 354.625C1823.22 354.625 1811.17 358.543 1800.72 366.381C1790.27 373.929 1783.59 385.54 1780.69 401.216H1888.24C1887.37 386.992 1882.15 375.671 1872.57 367.252C1862.99 358.834 1851.08 354.625 1836.86 354.625ZM2118 535.765C2087.23 535.765 2060.81 529.234 2038.75 516.171C2016.69 502.817 1999.71 484.384 1987.81 460.871C1975.9 437.067 1969.95 409.634 1969.95 378.573C1969.95 347.512 1975.9 320.08 1987.81 296.276C1999.71 272.473 2016.69 253.894 2038.75 240.541C2060.81 227.187 2087.23 220.511 2118 220.511C2154.58 220.511 2184.48 229.655 2207.7 247.943C2231.21 265.941 2245.87 291.341 2251.68 324.144H2190.28C2186.51 307.598 2178.38 294.68 2165.9 285.391C2153.71 275.811 2137.45 271.021 2117.13 271.021C2088.97 271.021 2066.91 280.601 2050.94 299.76C2034.98 318.919 2027 345.19 2027 378.573C2027 411.957 2034.98 438.228 2050.94 457.387C2066.91 476.256 2088.97 485.69 2117.13 485.69C2137.45 485.69 2153.71 481.336 2165.9 472.627C2178.38 463.628 2186.51 451.291 2190.28 435.615H2251.68C2245.87 466.967 2231.21 491.496 2207.7 509.204C2184.48 526.911 2154.58 535.765 2118 535.765ZM2286.65 530.54V314.565H2336.29L2341.51 355.06C2349.35 341.126 2359.94 330.095 2373.3 321.967C2386.94 313.549 2402.91 309.339 2421.2 309.339V368.123H2405.52C2393.33 368.123 2382.44 370.01 2372.86 373.784C2363.28 377.557 2355.74 384.089 2350.22 393.378C2344.99 402.667 2342.38 415.585 2342.38 432.132V530.54H2286.65ZM2520.69 535.765C2502.11 535.765 2486.87 532.862 2474.97 527.057C2463.06 520.96 2454.21 512.978 2448.4 503.108C2442.6 493.238 2439.69 482.352 2439.69 470.45C2439.69 450.42 2447.53 434.164 2463.21 421.681C2478.88 409.199 2502.4 402.958 2533.75 402.958H2588.61V397.733C2588.61 382.928 2584.4 372.042 2575.99 365.075C2567.57 358.108 2557.12 354.625 2544.63 354.625C2533.31 354.625 2523.44 357.382 2515.03 362.898C2506.61 368.123 2501.38 375.961 2499.35 386.411H2444.92C2446.37 370.736 2451.6 357.092 2460.6 345.48C2469.89 333.869 2481.79 325.015 2496.3 318.919C2510.82 312.533 2527.07 309.339 2545.07 309.339C2575.84 309.339 2600.08 317.032 2617.79 332.417C2635.5 347.803 2644.35 369.575 2644.35 397.733V530.54H2596.89L2591.66 495.705C2585.28 507.317 2576.28 516.896 2564.66 524.444C2553.34 531.991 2538.68 535.765 2520.69 535.765ZM2533.31 492.222C2549.28 492.222 2561.62 486.997 2570.33 476.546C2579.32 466.096 2584.98 453.178 2587.31 437.793H2539.84C2525.04 437.793 2514.44 440.55 2508.06 446.066C2501.67 451.291 2498.48 457.823 2498.48 465.66C2498.48 474.079 2501.67 480.61 2508.06 485.255C2514.44 489.9 2522.86 492.222 2533.31 492.222ZM2694.49 530.54V361.156H2664.88V314.565H2694.49V289.309C2694.49 263.183 2701.02 244.605 2714.08 233.574C2727.44 222.543 2745.43 217.027 2768.08 217.027H2792.03V264.49H2776.79C2767.21 264.49 2760.38 266.377 2756.32 270.15C2752.26 273.924 2750.22 280.31 2750.22 289.309V314.565H2796.82V361.156H2750.22V530.54H2694.49ZM2924.13 530.54C2901.48 530.54 2883.34 525.025 2869.7 513.994C2856.05 502.963 2849.23 483.368 2849.23 455.21V361.156H2812.22V314.565H2849.23L2855.76 256.652H2904.97V314.565H2963.31V361.156H2904.97V455.645C2904.97 466.096 2907.14 473.353 2911.5 477.417C2916.14 481.191 2923.98 483.078 2935.01 483.078H2962.01V530.54H2924.13ZM3097.52 535.765C3075.75 535.765 3056.44 531.121 3039.6 521.831C3022.77 512.542 3009.56 499.479 2999.98 482.642C2990.4 465.805 2985.61 446.356 2985.61 424.294C2985.61 401.942 2990.26 382.057 2999.54 364.64C3009.12 347.222 3022.19 333.724 3038.73 324.144C3055.57 314.274 3075.31 309.339 3097.95 309.339C3119.14 309.339 3137.87 313.984 3154.12 323.273C3170.38 332.563 3183.01 345.335 3192.01 361.592C3201.3 377.557 3205.94 395.41 3205.94 415.15C3205.94 418.343 3205.8 421.681 3205.5 425.165C3205.5 428.648 3205.36 432.277 3205.07 436.051H3040.91C3042.07 452.888 3047.88 466.096 3058.33 475.675C3069.07 485.255 3081.99 490.045 3097.08 490.045C3108.4 490.045 3117.84 487.577 3125.38 482.642C3133.22 477.417 3139.03 470.74 3142.8 462.612H3199.41C3195.34 476.256 3188.52 488.738 3178.94 500.06C3169.65 511.091 3158.04 519.799 3144.11 526.186C3130.46 532.572 3114.93 535.765 3097.52 535.765ZM3097.95 354.625C3084.31 354.625 3072.26 358.543 3061.81 366.381C3051.36 373.929 3044.68 385.54 3041.78 401.216H3149.33C3148.46 386.992 3143.24 375.671 3133.66 367.252C3124.08 358.834 3112.18 354.625 3097.95 354.625ZM3239.75 530.54V314.565H3289.39L3294.62 355.06C3302.46 341.126 3313.05 330.095 3326.41 321.967C3340.05 313.549 3356.02 309.339 3374.3 309.339V368.123H3358.63C3346.44 368.123 3335.55 370.01 3325.97 373.784C3316.39 377.557 3308.84 384.089 3303.33 393.378C3298.1 402.667 3295.49 415.585 3295.49 432.132V530.54H3239.75ZM3488.6 535.765C3469.44 535.765 3452.6 532.717 3438.09 526.621C3423.57 520.235 3411.96 511.526 3403.25 500.495C3394.54 489.464 3389.32 476.691 3387.58 462.177H3443.75C3445.49 470.595 3450.13 477.852 3457.68 483.949C3465.52 489.754 3475.54 492.657 3487.73 492.657C3499.92 492.657 3508.77 490.19 3514.29 485.255C3520.09 480.32 3523 474.659 3523 468.273C3523 458.984 3518.93 452.742 3510.81 449.549C3502.68 446.066 3491.36 442.727 3476.84 439.534C3467.55 437.502 3458.12 435.035 3448.54 432.132C3438.96 429.229 3430.1 425.6 3421.98 421.246C3414.14 416.601 3407.75 410.796 3402.82 403.829C3397.88 396.571 3395.42 387.718 3395.42 377.267C3395.42 358.108 3402.96 341.997 3418.06 328.934C3433.44 315.871 3454.92 309.339 3482.5 309.339C3508.05 309.339 3528.37 315.29 3543.46 327.192C3558.85 339.094 3567.99 355.495 3570.9 376.396H3518.21C3515.01 360.43 3502.97 352.447 3482.07 352.447C3471.62 352.447 3463.49 354.479 3457.68 358.543C3452.17 362.608 3449.41 367.688 3449.41 373.784C3449.41 380.17 3453.62 385.25 3462.04 389.024C3470.46 392.798 3481.63 396.281 3495.57 399.474C3510.66 402.958 3524.45 406.877 3536.93 411.231C3549.7 415.295 3559.86 421.536 3567.41 429.955C3574.96 438.083 3578.73 449.84 3578.73 465.225C3579.02 478.578 3575.54 490.625 3568.28 501.366C3561.03 512.107 3550.58 520.525 3536.93 526.621C3523.29 532.717 3507.18 535.765 3488.6 535.765Z" fill="#171920"/>
<defs>
<linearGradient id="paint0_linear_808_30" x1="120.395" y1="106.003" x2="658.134" y2="643.742" gradientUnits="userSpaceOnUse">
<stop stop-color="#171920"/>
<stop offset="1" stop-color="#0C0C11"/>
</linearGradient>
<linearGradient id="paint1_linear_808_30" x1="103.195" y1="118.289" x2="644.444" y2="659.538" gradientUnits="userSpaceOnUse">
<stop stop-color="#00E0EE"/>
<stop offset="1" stop-color="#6809E1"/>
</linearGradient>
</defs>
</svg>
