<svg xmlns="http://www.w3.org/2000/svg" xmlns:xlink="http://www.w3.org/1999/xlink" id="Layer_1" data-name="Layer 1" viewBox="0 0 1080 176.81"><defs><linearGradient id="linear-gradient" x1="79.52" x2="122.32" y1="-392.7" y2="-392.7" gradientTransform="matrix(1 0 0 -1 0 -300.35)" gradientUnits="userSpaceOnUse"><stop offset=".02" stop-color="#7247ff"/><stop offset=".96" stop-color="#7c54ff"/></linearGradient><linearGradient id="linear-gradient-2" x1="14.46" x2="43.08" y1="-367.61" y2="-417.17" gradientTransform="matrix(1 0 0 -1 0 -300.35)" gradientUnits="userSpaceOnUse"><stop offset="0" stop-color="#7c54ff"/><stop offset="1" stop-color="#7247ff"/></linearGradient><linearGradient xlink:href="#linear-gradient-2" id="linear-gradient-3" x1="23.13" x2="51.75" y1="-362.6" y2="-412.17"/><linearGradient id="linear-gradient-4" x1="-212.44" x2="-199" y1="1682.11" y2="1682.11" gradientTransform="matrix(.62374 -.81966 -.79594 -.72097 1502.95 1130.87)" gradientUnits="userSpaceOnUse"><stop offset=".23" stop-color="#7c54ff"/><stop offset=".74" stop-color="#7247ff"/></linearGradient><linearGradient id="linear-gradient-5" x1="35.78" x2="93.62" y1="-426.47" y2="-426.47" gradientTransform="matrix(1 0 0 -1 0 -300.35)" gradientUnits="userSpaceOnUse"><stop offset="0" stop-color="#19f2c8"/><stop offset=".08" stop-color="#14dfbe"/><stop offset=".25" stop-color="#0dbdad"/><stop offset=".43" stop-color="#07a2a0"/><stop offset=".61" stop-color="#038f96"/><stop offset=".8" stop-color="#008490"/><stop offset="1" stop-color="#00818f"/></linearGradient><linearGradient xlink:href="#linear-gradient-5" id="linear-gradient-6" x1="35.78" x2="53.25" y1="-426.58" y2="-426.58"/><linearGradient xlink:href="#linear-gradient-2" id="linear-gradient-7" x1="188.75" x2="188.75" y1="-432.88" y2="-401.15" gradientTransform="rotate(2.32 7588.79 -2819.88)scale(1 -1)"/><linearGradient xlink:href="#linear-gradient-2" id="linear-gradient-8" x1="15.58" x2="44.2" y1="-366.96" y2="-416.52"/><linearGradient xlink:href="#linear-gradient-2" id="linear-gradient-9" x1="161.9" x2="161.9" y1="-432.88" y2="-401.15" gradientTransform="rotate(2.32 7588.79 -2819.88)scale(1 -1)"/><linearGradient xlink:href="#linear-gradient-2" id="linear-gradient-10" x1="28.86" x2="57.48" y1="-359.29" y2="-408.86"/><linearGradient xlink:href="#linear-gradient-2" id="linear-gradient-11" x1="177.53" x2="177.53" y1="-432.88" y2="-401.15" gradientTransform="rotate(2.32 7588.79 -2819.88)scale(1 -1)"/><linearGradient xlink:href="#linear-gradient-5" id="linear-gradient-12" x1="35.78" x2="93.62" y1="-416.76" y2="-416.76"/><linearGradient xlink:href="#linear-gradient-2" id="linear-gradient-13" x1="181.22" x2="181.22" y1="-432.88" y2="-401.15" gradientTransform="rotate(2.32 7588.79 -2819.88)scale(1 -1)"/><linearGradient xlink:href="#linear-gradient-2" id="linear-gradient-14" x1="21.24" x2="49.86" y1="-363.69" y2="-413.25"/><linearGradient xlink:href="#linear-gradient-5" id="linear-gradient-15" x1="35.78" x2="93.62" y1="-407.31" y2="-407.31"/><linearGradient xlink:href="#linear-gradient-2" id="linear-gradient-16" x1="170" x2="170" y1="-432.88" y2="-401.15" gradientTransform="rotate(2.32 7588.79 -2819.88)scale(1 -1)"/><linearGradient xlink:href="#linear-gradient-2" id="linear-gradient-17" x1="90.64" x2="159.17" y1="-402.35" y2="-402.35"/><linearGradient id="linear-gradient-18" x1="19.12" x2="72.56" y1="-436.1" y2="-436.1" gradientTransform="matrix(1 0 0 -1 0 -300.35)" gradientUnits="userSpaceOnUse"><stop offset=".2" stop-color="#7247ff"/><stop offset=".96" stop-color="#7c54ff"/></linearGradient><linearGradient xlink:href="#linear-gradient-2" id="linear-gradient-19" x1="3.38" x2="32" y1="-374" y2="-423.57"/><linearGradient xlink:href="#linear-gradient-18" id="linear-gradient-20" x1="19.12" x2="72.56" y1="-418.71" y2="-418.71"/><linearGradient id="linear-gradient-21" x1="-292.68" x2="-292.12" y1="36.47" y2="36.47" gradientUnits="userSpaceOnUse"><stop offset="0" stop-color="#7c54ff"/><stop offset=".97" stop-color="#7c54ff"/></linearGradient><linearGradient xlink:href="#linear-gradient" id="linear-gradient-22" x1="79.52" x2="122.32" y1="-372.67" y2="-372.67"/><linearGradient xlink:href="#linear-gradient-21" id="linear-gradient-23" x1="-292.68" x2="-292.12" y1="72.32" y2="72.32"/><linearGradient id="linear-gradient-24" x1="171.5" x2="228.22" y1="-382.66" y2="-356.21" gradientTransform="matrix(1.02 0 -.00036 -1 -41.84 -300.74)" gradientUnits="userSpaceOnUse"><stop offset=".02" stop-color="#7247ff"/><stop offset=".94" stop-color="#7c54ff"/></linearGradient><linearGradient xlink:href="#linear-gradient-2" id="linear-gradient-25" x1="90.64" x2="159.17" y1="-380.53" y2="-380.53"/><linearGradient xlink:href="#linear-gradient-24" id="linear-gradient-26" x1="173.01" x2="229.73" y1="-385.9" y2="-359.45"/><linearGradient xlink:href="#linear-gradient-21" id="linear-gradient-27" x1="-292.68" x2="-292.12" y1="60.83" y2="60.83"/><linearGradient xlink:href="#linear-gradient-24" id="linear-gradient-28" x1="168.74" x2="225.46" y1="-376.75" y2="-350.29"/><linearGradient xlink:href="#linear-gradient-2" id="linear-gradient-29" x1="90.64" x2="159.17" y1="-373.02" y2="-373.02"/><linearGradient xlink:href="#linear-gradient-21" id="linear-gradient-30" x1="-292.68" x2="-292.12" y1="72.67" y2="72.67"/><linearGradient xlink:href="#linear-gradient-24" id="linear-gradient-31" x1="170.88" x2="227.6" y1="-381.34" y2="-354.89"/><linearGradient xlink:href="#linear-gradient-21" id="linear-gradient-32" x1="-292.68" x2="-292.12" y1="151.54" y2="151.54"/><linearGradient xlink:href="#linear-gradient-2" id="linear-gradient-33" x1="90.64" x2="159.17" y1="-441.21" y2="-441.21"/><linearGradient xlink:href="#linear-gradient-21" id="linear-gradient-34" x1="-292.68" x2="-292.12" y1="140.86" y2="140.86"/><linearGradient xlink:href="#linear-gradient-2" id="linear-gradient-35" x1="90.64" x2="159.17" y1="-426.88" y2="-426.88"/><linearGradient xlink:href="#linear-gradient-21" id="linear-gradient-36" x1="-292.68" x2="-292.12" y1="126.53" y2="126.53"/><linearGradient xlink:href="#linear-gradient-2" id="linear-gradient-37" x1="90.64" x2="159.17" y1="-425.74" y2="-425.74"/><linearGradient xlink:href="#linear-gradient-21" id="linear-gradient-38" x1="-292.68" x2="-292.12" y1="125.39" y2="125.39"/><linearGradient xlink:href="#linear-gradient-2" id="linear-gradient-39" x1="90.64" x2="159.17" y1="-432.14" y2="-432.14"/><linearGradient xlink:href="#linear-gradient-21" id="linear-gradient-40" x1="-292.68" x2="-292.12" y1="131.79" y2="131.79"/><linearGradient xlink:href="#linear-gradient-18" id="linear-gradient-41" x1="19.12" x2="72.56" y1="-451.79" y2="-451.79"/><linearGradient xlink:href="#linear-gradient-21" id="linear-gradient-42" x1="-292.68" x2="-292.12" y1="151.43" y2="151.43"/><linearGradient xlink:href="#linear-gradient-2" id="linear-gradient-43" x1="13.91" x2="42.52" y1="-367.93" y2="-417.49"/><linearGradient id="linear-gradient-44" x1="206.75" x2="220.19" y1="2425.84" y2="2425.84" gradientTransform="matrix(-.00745 -1.21998 -1.38406 -.66115 3394.51 1976.01)" gradientUnits="userSpaceOnUse"><stop offset=".19" stop-color="#7247ff"/><stop offset=".92" stop-color="#7c54ff"/></linearGradient><linearGradient xlink:href="#linear-gradient-2" id="linear-gradient-45" x1="14.52" x2="43.13" y1="-367.58" y2="-417.14"/><linearGradient xlink:href="#linear-gradient-2" id="linear-gradient-46" x1="160.87" x2="160.87" y1="-432.88" y2="-401.15" gradientTransform="rotate(2.32 7588.79 -2819.88)scale(1 -1)"/><linearGradient xlink:href="#linear-gradient-44" id="linear-gradient-47" x1="206.75" x2="220.19" y1="2425.17" y2="2425.17"/><linearGradient xlink:href="#linear-gradient-5" id="linear-gradient-48" x1="35.78" x2="93.62" y1="-420.45" y2="-420.45"/><linearGradient xlink:href="#linear-gradient-2" id="linear-gradient-49" x1="176.76" x2="176.76" y1="-432.88" y2="-401.15" gradientTransform="rotate(2.32 7588.79 -2819.88)scale(1 -1)"/><linearGradient xlink:href="#linear-gradient-44" id="linear-gradient-50" x1="206.75" x2="220.19" y1="2414.17" y2="2414.17"/><linearGradient xlink:href="#linear-gradient-2" id="linear-gradient-51" x1="15.78" x2="44.4" y1="-366.85" y2="-416.41"/><linearGradient xlink:href="#linear-gradient-5" id="linear-gradient-52" x1="35.78" x2="93.62" y1="-409.45" y2="-409.45"/><linearGradient xlink:href="#linear-gradient-2" id="linear-gradient-53" x1="165.07" x2="165.07" y1="-432.88" y2="-401.15" gradientTransform="rotate(2.32 7588.79 -2819.88)scale(1 -1)"/><linearGradient xlink:href="#linear-gradient-44" id="linear-gradient-54" x1="206.75" x2="220.19" y1="2422.26" y2="2422.26"/><linearGradient xlink:href="#linear-gradient-44" id="linear-gradient-55" x1="206.75" x2="220.19" y1="2425.42" y2="2425.42"/><linearGradient xlink:href="#linear-gradient-2" id="linear-gradient-56" x1="83.07" x2="92.76" y1="-416.53" y2="-406.84"/><linearGradient xlink:href="#linear-gradient" id="linear-gradient-57" x1="79.52" x2="122.32" y1="-413.01" y2="-413.01"/><linearGradient xlink:href="#linear-gradient-2" id="linear-gradient-58" x1="85.25" x2="94.94" y1="-418.71" y2="-409.02"/><linearGradient xlink:href="#linear-gradient-21" id="linear-gradient-59" x1="-292.68" x2="-292.12" y1="115.12" y2="115.12"/><linearGradient xlink:href="#linear-gradient-2" id="linear-gradient-60" x1="83.52" x2="93.22" y1="-416.99" y2="-407.3"/><linearGradient xlink:href="#linear-gradient" id="linear-gradient-61" x1="79.52" x2="122.32" y1="-416.34" y2="-416.34"/><linearGradient xlink:href="#linear-gradient-21" id="linear-gradient-62" x1="-292.68" x2="-292.12" y1="115.98" y2="115.98"/><linearGradient xlink:href="#linear-gradient-2" id="linear-gradient-63" x1="86.05" x2="95.74" y1="-419.51" y2="-409.82"/><linearGradient xlink:href="#linear-gradient-21" id="linear-gradient-64" x1="-292.68" x2="-292.12" y1="130.01" y2="130.01"/><linearGradient xlink:href="#linear-gradient-2" id="linear-gradient-65" x1="108.81" x2="129.95" y1="-422.56" y2="-434.77"/><linearGradient xlink:href="#linear-gradient-2" id="linear-gradient-66" x1="90.64" x2="159.17" y1="-431.37" y2="-431.37"/><linearGradient xlink:href="#linear-gradient-21" id="linear-gradient-67" x1="-292.68" x2="-292.12" y1="131.02" y2="131.02"/><linearGradient xlink:href="#linear-gradient-2" id="linear-gradient-68" x1="107.19" x2="128.33" y1="-425.38" y2="-437.58"/><linearGradient xlink:href="#linear-gradient-2" id="linear-gradient-69" x1="90.64" x2="159.17" y1="-421.41" y2="-421.41"/><linearGradient id="linear-gradient-70" x1="103.3" x2="120.04" y1="-428.99" y2="-419.32" gradientTransform="matrix(1 0 0 -1 0 -300.35)" gradientUnits="userSpaceOnUse"><stop offset=".12" stop-color="#7247ff"/><stop offset=".79" stop-color="#7c54ff"/></linearGradient><linearGradient xlink:href="#linear-gradient-21" id="linear-gradient-71" x1="124.2" x2="124.3" y1="126.34" y2="126.34"/><linearGradient xlink:href="#linear-gradient-70" id="linear-gradient-72" x1="107.54" x2="124.28" y1="-436.34" y2="-426.67"/><linearGradient xlink:href="#linear-gradient-2" id="linear-gradient-73" x1="90.64" x2="159.17" y1="-424.27" y2="-424.27"/><linearGradient xlink:href="#linear-gradient-21" id="linear-gradient-74" x1="-292.68" x2="-292.12" y1="123.92" y2="123.92"/><linearGradient xlink:href="#linear-gradient-70" id="linear-gradient-75" x1="104.07" x2="120.81" y1="-430.31" y2="-420.65"/><linearGradient xlink:href="#linear-gradient-2" id="linear-gradient-76" x1="90.64" x2="159.17" y1="-430.83" y2="-430.83"/><linearGradient xlink:href="#linear-gradient-21" id="linear-gradient-77" x1="-292.68" x2="-292.12" y1="130.47" y2="130.47"/><linearGradient xlink:href="#linear-gradient-70" id="linear-gradient-78" x1="104.41" x2="121.15" y1="-430.91" y2="-421.24"/><linearGradient xlink:href="#linear-gradient-2" id="linear-gradient-79" x1="90.64" x2="159.17" y1="-428.94" y2="-428.94"/><linearGradient xlink:href="#linear-gradient-21" id="linear-gradient-80" x1="-292.68" x2="-292.12" y1="128.59" y2="128.59"/><linearGradient xlink:href="#linear-gradient-2" id="linear-gradient-81" x1="107.26" x2="128.4" y1="-425.25" y2="-437.45"/><linearGradient xlink:href="#linear-gradient-70" id="linear-gradient-82" x1="105.79" x2="122.53" y1="-433.3" y2="-423.64"/><linearGradient id="linear-gradient-83" x1="1218.39" x2="1231.39" y1="-890.67" y2="-890.67" gradientTransform="matrix(.94277 .46227 .64967 -.93998 -500.44 -1289.55)" gradientUnits="userSpaceOnUse"><stop offset=".02" stop-color="#7247ff"/><stop offset=".88" stop-color="#7c54ff"/></linearGradient><linearGradient xlink:href="#linear-gradient-5" id="linear-gradient-84" x1="35.78" x2="93.62" y1="-426.46" y2="-426.46"/><linearGradient xlink:href="#linear-gradient-83" id="linear-gradient-85" x1="1218.39" x2="1231.39" y1="-906.02" y2="-906.02"/><linearGradient xlink:href="#linear-gradient-2" id="linear-gradient-86" x1="196.37" x2="196.37" y1="-432.88" y2="-401.15" gradientTransform="rotate(2.32 7588.79 -2819.88)scale(1 -1)"/><linearGradient xlink:href="#linear-gradient-83" id="linear-gradient-87" x1="1218.39" x2="1231.39" y1="-896.38" y2="-896.38"/><linearGradient xlink:href="#linear-gradient-5" id="linear-gradient-88" x1="35.78" x2="93.62" y1="-423.59" y2="-423.59"/><linearGradient xlink:href="#linear-gradient-2" id="linear-gradient-89" x1="190.01" x2="190.01" y1="-432.88" y2="-401.15" gradientTransform="rotate(2.32 7588.79 -2819.88)scale(1 -1)"/><linearGradient xlink:href="#linear-gradient-83" id="linear-gradient-90" x1="1218.39" x2="1231.39" y1="-902.39" y2="-902.39"/><linearGradient xlink:href="#linear-gradient-21" id="linear-gradient-91" x1="-292.68" x2="-292.12" y1="115.86" y2="115.86"/><linearGradient xlink:href="#linear-gradient-83" id="linear-gradient-92" x1="1218.39" x2="1231.39" y1="-891.03" y2="-891.03"/><linearGradient xlink:href="#linear-gradient-21" id="linear-gradient-93" x1="-292.68" x2="-292.12" y1="120.99" y2="120.99"/><linearGradient xlink:href="#linear-gradient-83" id="linear-gradient-94" x1="1218.39" x2="1231.39" y1="-898.14" y2="-898.14"/><linearGradient xlink:href="#linear-gradient-5" id="linear-gradient-95" x1="35.78" x2="93.62" y1="-424.32" y2="-424.32"/><linearGradient xlink:href="#linear-gradient-21" id="linear-gradient-96" x1="-292.68" x2="-292.12" y1="123.97" y2="123.97"/><linearGradient xlink:href="#linear-gradient-83" id="linear-gradient-97" x1="1218.39" x2="1231.39" y1="-902.71" y2="-902.71"/><linearGradient xlink:href="#linear-gradient-2" id="linear-gradient-98" x1="196.95" x2="196.95" y1="-432.88" y2="-401.15" gradientTransform="rotate(2.32 7588.79 -2819.88)scale(1 -1)"/><linearGradient xlink:href="#linear-gradient-21" id="linear-gradient-99" x1="-292.68" x2="-292.12" y1="119.53" y2="119.53"/><linearGradient xlink:href="#linear-gradient-83" id="linear-gradient-100" x1="1218.39" x2="1231.39" y1="-896.65" y2="-896.65"/><linearGradient xlink:href="#linear-gradient-5" id="linear-gradient-101" x1="35.78" x2="93.62" y1="-423.58" y2="-423.58"/><linearGradient xlink:href="#linear-gradient-2" id="linear-gradient-102" x1="190.68" x2="190.68" y1="-432.88" y2="-401.15" gradientTransform="rotate(2.32 7588.79 -2819.88)scale(1 -1)"/><linearGradient xlink:href="#linear-gradient-21" id="linear-gradient-103" x1="-292.68" x2="-292.12" y1="123.23" y2="123.23"/><linearGradient xlink:href="#linear-gradient-83" id="linear-gradient-104" x1="1218.39" x2="1231.39" y1="-902.36" y2="-902.36"/><linearGradient xlink:href="#linear-gradient-2" id="linear-gradient-105" x1="81.13" x2="90.83" y1="-414.6" y2="-404.91"/><linearGradient xlink:href="#linear-gradient-83" id="linear-gradient-106" x1="1218.39" x2="1231.39" y1="-887.4" y2="-887.4"/><linearGradient xlink:href="#linear-gradient-21" id="linear-gradient-107" x1="-292.68" x2="-292.12" y1="113.74" y2="113.74"/><linearGradient xlink:href="#linear-gradient-2" id="linear-gradient-108" x1="81.79" x2="91.48" y1="-415.25" y2="-405.56"/><linearGradient xlink:href="#linear-gradient-83" id="linear-gradient-109" x1="1218.39" x2="1231.39" y1="-887.78" y2="-887.78"/><linearGradient xlink:href="#linear-gradient-21" id="linear-gradient-110" x1="-292.68" x2="-292.12" y1="155.57" y2="155.57"/><linearGradient xlink:href="#linear-gradient-83" id="linear-gradient-111" x1="-9.11" x2="4.4" y1="895.45" y2="895.45" gradientTransform="matrix(.93901 -.62861 -.37191 -1.2673 445.42 1288.41)"/><linearGradient xlink:href="#linear-gradient-2" id="linear-gradient-112" x1="90.64" x2="159.17" y1="-441.4" y2="-441.4"/><linearGradient xlink:href="#linear-gradient-21" id="linear-gradient-113" x1="-292.68" x2="-292.12" y1="141.05" y2="141.05"/><linearGradient xlink:href="#linear-gradient-83" id="linear-gradient-114" x1="-9.11" x2="4.4" y1="904.28" y2="904.28" gradientTransform="matrix(.93901 -.62861 -.37191 -1.2673 445.42 1288.41)"/><linearGradient xlink:href="#linear-gradient-5" id="linear-gradient-115" x1="35.78" x2="93.62" y1="-426.61" y2="-426.61"/><linearGradient id="linear-gradient-116" x1="-433.42" x2="-420.42" y1="1135.4" y2="1135.4" gradientTransform="matrix(.74998 -.61517 -.46604 -1.01457 905.84 1019.4)" gradientUnits="userSpaceOnUse"><stop offset=".19" stop-color="#7c54ff"/><stop offset=".9" stop-color="#7247ff"/></linearGradient><linearGradient xlink:href="#linear-gradient-5" id="linear-gradient-117" x1="35.78" x2="93.62" y1="-428.68" y2="-428.68"/><linearGradient xlink:href="#linear-gradient-2" id="linear-gradient-118" x1="185.77" x2="185.77" y1="-432.88" y2="-401.15" gradientTransform="rotate(2.32 7588.79 -2819.88)scale(1 -1)"/><linearGradient xlink:href="#linear-gradient-116" id="linear-gradient-119" x1="-433.42" x2="-420.42" y1="1134" y2="1134"/><linearGradient xlink:href="#linear-gradient-18" id="linear-gradient-120" x1="19.12" x2="72.56" y1="-449.82" y2="-449.82"/><linearGradient xlink:href="#linear-gradient-116" id="linear-gradient-121" x1="-433.42" x2="-420.42" y1="1120.28" y2="1120.28"/><linearGradient xlink:href="#linear-gradient-18" id="linear-gradient-122" x1="19.12" x2="72.56" y1="-450.36" y2="-450.36"/><linearGradient xlink:href="#linear-gradient-21" id="linear-gradient-123" x1="-292.68" x2="-292.12" y1="150.01" y2="150.01"/><linearGradient xlink:href="#linear-gradient-116" id="linear-gradient-124" x1="-433.42" x2="-420.42" y1="1119.38" y2="1119.38"/><linearGradient xlink:href="#linear-gradient-5" id="linear-gradient-125" x1="35.78" x2="93.62" y1="-429.05" y2="-429.05"/><linearGradient xlink:href="#linear-gradient-2" id="linear-gradient-126" x1="185.11" x2="185.11" y1="-432.88" y2="-401.15" gradientTransform="rotate(2.32 7588.79 -2819.88)scale(1 -1)"/><linearGradient xlink:href="#linear-gradient-44" id="linear-gradient-127" x1="206.75" x2="220.19" y1="2408.4" y2="2408.4"/><linearGradient xlink:href="#linear-gradient-116" id="linear-gradient-128" x1="-433.42" x2="-420.42" y1="1134.4" y2="1134.4"/><linearGradient xlink:href="#linear-gradient-5" id="linear-gradient-129" x1="35.78" x2="93.62" y1="-426.57" y2="-426.57"/><linearGradient xlink:href="#linear-gradient-83" id="linear-gradient-130" x1="1218.39" x2="1231.39" y1="-906.14" y2="-906.14"/><linearGradient xlink:href="#linear-gradient-116" id="linear-gradient-131" x1="-433.42" x2="-420.42" y1="1135.43" y2="1135.43"/><linearGradient xlink:href="#linear-gradient-2" id="linear-gradient-132" x1="90.64" x2="159.17" y1="-380.32" y2="-380.32"/><linearGradient xlink:href="#linear-gradient-83" id="linear-gradient-133" x1="655.42" x2="668.54" y1="467.06" y2="467.06" gradientTransform="matrix(1.23277 -.37996 .38226 -1.62466 -846.19 1088.52)"/><linearGradient xlink:href="#linear-gradient-21" id="linear-gradient-134" x1="-292.68" x2="-292.12" y1="46.55" y2="46.55"/><linearGradient xlink:href="#linear-gradient-83" id="linear-gradient-135" x1="655.42" x2="668.54" y1="485.54" y2="485.54" gradientTransform="matrix(1.23277 -.37996 .38226 -1.62466 -846.19 1088.52)"/><linearGradient xlink:href="#linear-gradient-21" id="linear-gradient-136" x1="-292.68" x2="-292.12" y1="55.53" y2="55.53"/><linearGradient xlink:href="#linear-gradient-24" id="linear-gradient-137" x1="165.5" x2="222.23" y1="-369.8" y2="-343.35"/><linearGradient xlink:href="#linear-gradient-83" id="linear-gradient-138" x1="655.42" x2="668.54" y1="480.39" y2="480.39" gradientTransform="matrix(1.23277 -.37996 .38226 -1.62466 -846.19 1088.52)"/><linearGradient xlink:href="#linear-gradient-2" id="linear-gradient-139" x1="90.64" x2="159.17" y1="-371.27" y2="-371.27"/><linearGradient xlink:href="#linear-gradient-21" id="linear-gradient-140" x1="-292.68" x2="-292.12" y1="70.92" y2="70.92"/><linearGradient xlink:href="#linear-gradient-24" id="linear-gradient-141" x1="169.71" x2="226.43" y1="-378.82" y2="-352.37"/><linearGradient xlink:href="#linear-gradient-83" id="linear-gradient-142" x1="655.42" x2="668.54" y1="472.15" y2="472.15" gradientTransform="matrix(1.23277 -.37996 .38226 -1.62466 -846.19 1088.52)"/><linearGradient xlink:href="#linear-gradient-2" id="linear-gradient-143" x1="90.64" x2="159.17" y1="-380.23" y2="-380.23" gradientTransform="rotate(77.91 328.467 230.032)scale(1 -1)"/><linearGradient id="linear-gradient-144" x1="144.21" x2="122.68" y1="-380.23" y2="-380.23" gradientTransform="rotate(77.91 328.467 230.032)scale(1 -1)" gradientUnits="userSpaceOnUse"><stop offset=".02" stop-color="#7247ff"/><stop offset=".85" stop-color="#7c54ff"/></linearGradient><linearGradient xlink:href="#linear-gradient-2" id="linear-gradient-145" x1="90.64" x2="159.17" y1="-379.09" y2="-379.09"/><linearGradient xlink:href="#linear-gradient-144" id="linear-gradient-146" x1="144.21" x2="122.68" y1="-379.09" y2="-379.09" gradientTransform="matrix(1 0 0 -1 0 -300.35)"/><linearGradient xlink:href="#linear-gradient-2" id="linear-gradient-147" x1="90.64" x2="159.17" y1="-379.9" y2="-379.9" gradientTransform="rotate(59.31 406.674 229.747)scale(1 -1)"/><linearGradient xlink:href="#linear-gradient-24" id="linear-gradient-148" x1="172.29" x2="229.01" y1="-384.34" y2="-357.89" gradientTransform="matrix(.52045 .87723 .85985 -.51055 375.65 -273.41)"/><linearGradient xlink:href="#linear-gradient-144" id="linear-gradient-149" x1="144.21" x2="122.68" y1="-379.9" y2="-379.9" gradientTransform="rotate(59.31 406.674 229.747)scale(1 -1)"/><linearGradient xlink:href="#linear-gradient-2" id="linear-gradient-150" x1="90.64" x2="159.17" y1="-378.88" y2="-378.88"/><linearGradient xlink:href="#linear-gradient-24" id="linear-gradient-151" x1="170.94" x2="227.66" y1="-381.45" y2="-355"/><linearGradient xlink:href="#linear-gradient-144" id="linear-gradient-152" x1="144.21" x2="122.68" y1="-378.88" y2="-378.88" gradientTransform="matrix(1 0 0 -1 0 -300.35)"/><linearGradient xlink:href="#linear-gradient-2" id="linear-gradient-153" x1="90.64" x2="159.17" y1="-378.7" y2="-378.7"/><linearGradient xlink:href="#linear-gradient-21" id="linear-gradient-154" x1="-292.68" x2="-292.12" y1="78.35" y2="78.35"/><linearGradient xlink:href="#linear-gradient-24" id="linear-gradient-155" x1="171.95" x2="228.67" y1="-383.62" y2="-357.17"/><linearGradient xlink:href="#linear-gradient-144" id="linear-gradient-156" x1="144.21" x2="122.68" y1="-378.7" y2="-378.7" gradientTransform="matrix(1 0 0 -1 0 -300.35)"/><linearGradient xlink:href="#linear-gradient-2" id="linear-gradient-157" x1="90.64" x2="159.17" y1="-378.01" y2="-378.01"/><linearGradient xlink:href="#linear-gradient-21" id="linear-gradient-158" x1="-292.68" x2="-292.12" y1="77.65" y2="77.65"/><linearGradient xlink:href="#linear-gradient-24" id="linear-gradient-159" x1="170.54" x2="227.27" y1="-380.61" y2="-354.16"/><linearGradient xlink:href="#linear-gradient-144" id="linear-gradient-160" x1="144.21" x2="122.68" y1="-378.01" y2="-378.01" gradientTransform="matrix(1 0 0 -1 0 -300.35)"/><linearGradient xlink:href="#linear-gradient-2" id="linear-gradient-161" x1="90.64" x2="159.17" y1="-380.16" y2="-380.16"/><linearGradient xlink:href="#linear-gradient-83" id="linear-gradient-162" x1="655.42" x2="668.54" y1="467.21" y2="467.21" gradientTransform="matrix(1.23277 -.37996 .38226 -1.62466 -846.19 1088.52)"/><linearGradient xlink:href="#linear-gradient-144" id="linear-gradient-163" x1="144.21" x2="122.68" y1="-380.16" y2="-380.16" gradientTransform="matrix(1 0 0 -1 0 -300.35)"/><linearGradient xlink:href="#linear-gradient-2" id="linear-gradient-164" x1="90.64" x2="159.17" y1="-379.71" y2="-379.71"/><linearGradient xlink:href="#linear-gradient-24" id="linear-gradient-165" x1="172.03" x2="228.75" y1="-383.79" y2="-357.33"/><linearGradient xlink:href="#linear-gradient-83" id="linear-gradient-166" x1="655.42" x2="668.54" y1="467.63" y2="467.63" gradientTransform="matrix(1.23277 -.37996 .38226 -1.62466 -846.19 1088.52)"/><linearGradient xlink:href="#linear-gradient-144" id="linear-gradient-167" x1="144.21" x2="122.68" y1="-379.71" y2="-379.71" gradientTransform="matrix(1 0 0 -1 0 -300.35)"/><linearGradient xlink:href="#linear-gradient-2" id="linear-gradient-168" x1="90.64" x2="159.17" y1="-378.49" y2="-378.49"/><linearGradient xlink:href="#linear-gradient-21" id="linear-gradient-169" x1="-292.68" x2="-292.12" y1="78.14" y2="78.14"/><linearGradient xlink:href="#linear-gradient-24" id="linear-gradient-170" x1="171.7" x2="228.42" y1="-383.09" y2="-356.64"/><linearGradient xlink:href="#linear-gradient-83" id="linear-gradient-171" x1="655.42" x2="668.54" y1="468.25" y2="468.25" gradientTransform="matrix(1.23277 -.37996 .38226 -1.62466 -846.19 1088.52)"/><linearGradient xlink:href="#linear-gradient-144" id="linear-gradient-172" x1="144.21" x2="122.68" y1="-378.49" y2="-378.49" gradientTransform="matrix(1 0 0 -1 0 -300.35)"/><linearGradient xlink:href="#linear-gradient-21" id="linear-gradient-173" x1="-292.68" x2="-292.12" y1="26.22" y2="26.22"/><linearGradient id="linear-gradient-174" x1="4238.65" x2="4250.04" y1="-79.86" y2="-81.84" gradientTransform="matrix(-.3907 1.22941 1.1168 1.24033 1901.17 -5088.96)" gradientUnits="userSpaceOnUse"><stop offset=".29" stop-color="#7247ff"/><stop offset=".88" stop-color="#7c54ff"/></linearGradient><style>.cls-1,.cls-77{fill:#7247ff;stroke-width:0}.cls-77{fill:#262626}</style></defs><path d="m111.19 73.27-1.57-.33-19.24 38.83c.69-.11 1.36-.22 2.01-.32z" style="stroke-width:0;fill:url(#linear-gradient)"/><path d="m24.48 121.15.03-.04-17.71-8.47-5.19-24.01 11.56-18.98 19.11 5.39.06-.06 1.45.19 7.16 20.77-.79 1.35 20.11-4.98-4.09 7.98-.03.01.03.03 4.12-7.95-8.26-22.22-17.36-5.54-22.92 4.19L0 88.52l5.58 25.53L23 122.64l7.03-1.88-.98-1.04z" style="stroke-width:0;fill:url(#linear-gradient-2)"/><path d="m40.16 97.29.79-1.35-7.16-20.77-1.45-.19-.06.06.31.08z" style="stroke-width:0;fill:url(#linear-gradient-3)"/><path d="m40.16 97.29.79-1.35-7.16-20.77-1.45-.19-.06.06.31.08z" style="stroke-width:0;fill:url(#linear-gradient-4)"/><path d="M61.17 126.22v-.19z" style="stroke-width:0;fill:url(#linear-gradient-5)"/><path d="M61.18 126.24v-.01z" style="stroke-width:0;fill:url(#linear-gradient-6)"/><path d="m68.25 120.46 5.98-3.17s-.08-.08-.1-.09-17.96-16.87-17.96-16.87l-2.57 4.95 14.64 15.19Z" style="stroke-width:0;fill:url(#linear-gradient-7)"/><path d="m38.13 104.12-1.58.34.66.66z" style="stroke-width:0;fill:url(#linear-gradient-8)"/><path d="m38.13 104.12-1.58.34.66.66z" style="stroke-width:0;fill:url(#linear-gradient-9)"/><path d="m50.06 101.59 3.55 3.68 2.57-4.94-.03-.03z" style="stroke-width:0;fill:url(#linear-gradient-10)"/><path d="m50.06 101.59 3.55 3.68 2.57-4.94-.03-.03z" style="stroke-width:0;fill:url(#linear-gradient-11)"/><path d="m45.14 109.85-1.01 2.25 15.3 15.44 1.74-1.33v-.19l.04-1.84 7.04-3.73-14.64-15.19-3.65 7.04-4.82-2.47Z" style="stroke-width:0;fill:url(#linear-gradient-12)"/><path d="m45.14 109.85-1.01 2.25 15.3 15.44 1.74-1.33v-.19l.04-1.84 7.04-3.73-14.64-15.19-3.65 7.04-4.82-2.47Z" style="stroke-width:0;fill:url(#linear-gradient-13)"/><path d="m37.21 105.12 6.92 6.98 1.01-2.25 4.82 2.47 3.65-7.05-3.55-3.68-11.93 2.53z" style="stroke-width:0;fill:url(#linear-gradient-14)"/><path d="m37.21 105.12 6.92 6.98 1.01-2.25 4.82 2.47 3.65-7.05-3.55-3.68-11.93 2.53z" style="stroke-width:0;fill:url(#linear-gradient-15)"/><path d="m37.21 105.12 6.92 6.98 1.01-2.25 4.82 2.47 3.65-7.05-3.55-3.68-11.93 2.53z" style="stroke-width:0;fill:url(#linear-gradient-16)"/><path d="m148.31 81.05-5.54-1.26-.11.17-.01.01-.02-.01-10.05-2.24-21.25 39.93 10.17 6.82 2.75 1.8 24.07-45.22z" style="stroke-width:0;fill:url(#linear-gradient-17)"/><path d="M58.54 149.85v-.89l-26.63-28.71-1.88.51 28.69 30.48.01-1.27z" style="stroke-width:0;fill:url(#linear-gradient-18)"/><path d="m27.92 115.96-.92 1.4 2.08 2.35-.03.01.98 1.04 1.88-.51z" style="stroke-width:0;fill:url(#linear-gradient-19)"/><path d="m27.92 115.96-.92 1.4 2.08 2.35-.03.01.98 1.04 1.88-.51z" style="stroke-width:0;fill:url(#linear-gradient-20)"/><path d="m24.54 121.12-.03-.01-.03.04 4.57-1.43.03-.01-2.08-2.35z" class="cls-1"/><path d="M100.54 69.21 89.29 30.58l22.26-28.47 34.57 5.7.03.06 1.77-.19 15.04 35.3-1.2 1.78v.01l-.02.03.26 1.12 1.02-1.03 21.75-3.23-5.98 10.42 5.98-10.43-16.61-36.22L133.12 0l-22.6 1.05h-.29l-22.8 28.88L99 70.68l10.62 2.26.77-1.57z" style="stroke-width:0;fill:url(#linear-gradient-21)"/><path d="m111.95 71.71-1.56-.34-.77 1.57 1.57.33z" style="stroke-width:0;fill:url(#linear-gradient-22)"/><path d="m111.95 71.71-1.56-.34-.77 1.57 1.57.33z" style="stroke-width:0;fill:url(#linear-gradient-23)"/><path d="m148.87 80.01-.55 1.04 16.46-4.53 14.01-24.44-14.01 24.44z" style="stroke-width:0;fill:url(#linear-gradient-24)"/><path d="m147.98 80.2-4.92-.9-.29.49 5.54 1.26h.01l.55-1.04z" style="stroke-width:0;fill:url(#linear-gradient-25)"/><path d="m147.98 80.2-4.92-.9-.29.49 5.54 1.26h.01l.55-1.04z" style="stroke-width:0;fill:url(#linear-gradient-26)"/><path d="M163.02 44.89 162 45.92l.23 1.05-10.77 18.16 4.3 1.93-6.89 12.95 15.91-3.49 14.01-24.44 5.98-10.42z" style="stroke-width:0;fill:url(#linear-gradient-27)"/><path d="M163.02 44.89 162 45.92l.23 1.05-10.77 18.16 4.3 1.93-6.89 12.95 15.91-3.49 14.01-24.44 5.98-10.42z" style="stroke-width:0;fill:url(#linear-gradient-28)"/><path d="m144.21 77.4-1.15 1.9 4.92.9.89-.19 6.89-12.95-4.3-1.93-7.27 12.26z" style="stroke-width:0;fill:url(#linear-gradient-29)"/><path d="m144.21 77.4-1.15 1.9 4.92.9.89-.19 6.89-12.95-4.3-1.93-7.27 12.26z" style="stroke-width:0;fill:url(#linear-gradient-30)"/><path d="m144.21 77.4-1.15 1.9 4.92.9.89-.19 6.89-12.95-4.3-1.93-7.27 12.26z" style="stroke-width:0;fill:url(#linear-gradient-31)"/><path d="m124.3 126.35-.1.02-.02.03.14-.02 7.48 4.84-11.47 2.43-7.67 14.41-1.35-1.63-2.37 19.86-1.38-.16-26.23 8.25-21.09-20.34.04-1.15-1.56-1.65-.02 3.44 22.42 22.13 27.49-8.48 19.4-8.78 3.95-28.23-7.71-5.05-.01.03z" style="stroke-width:0;fill:url(#linear-gradient-32)"/><path d="m111 135.67.02-.01 1.41 1.41-1.12 9.36 1.35 1.63 7.67-14.41-9.37 1.98z" style="stroke-width:0;fill:url(#linear-gradient-33)"/><path d="m111 135.67.02-.01 1.41 1.41-1.12 9.36 1.35 1.63 7.67-14.41-9.37 1.98z" style="stroke-width:0;fill:url(#linear-gradient-34)"/><path d="m124.18 126.4.02-.03-1.49.31z" style="stroke-width:0;fill:url(#linear-gradient-35)"/><path d="m124.18 126.4.02-.03-1.49.31z" style="stroke-width:0;fill:url(#linear-gradient-36)"/><path d="m124.24 126.3.01-.03-2.75-1.8z" style="stroke-width:0;fill:url(#linear-gradient-37)"/><path d="m124.24 126.3.01-.03-2.75-1.8z" style="stroke-width:0;fill:url(#linear-gradient-38)"/><path d="m107.74 133.08-3.13-2.59-.11.03z" style="stroke-width:0;fill:url(#linear-gradient-39)"/><path d="m107.74 133.08-3.13-2.59-.11.03z" style="stroke-width:0;fill:url(#linear-gradient-40)"/><path d="m60.34 150.9-.04-.05h-.19l-1.38-.88-.01 1.27 1.56 1.65z" style="stroke-width:0;fill:url(#linear-gradient-41)"/><path d="m60.34 150.9-.04-.05h-.19l-1.38-.88-.01 1.27 1.56 1.65z" style="stroke-width:0;fill:url(#linear-gradient-42)"/><path d="m40.15 97.29-4.96 7.26.13.14 1.19-.28.04.05 1.58-.34 11.93-2.53 6.09-1.29.03-.01 4.09-7.98-20.11 4.98z" class="cls-1"/><path d="m35.35 104.71.01.02z" style="stroke-width:0;fill:url(#linear-gradient-43)"/><path d="m35.35 104.71.01.02z" style="stroke-width:0;fill:url(#linear-gradient-44)"/><path d="m36.55 104.46-1.2.25.01.02 1.15 1.15.7-.76z" style="stroke-width:0;fill:url(#linear-gradient-45)"/><path d="m36.55 104.46-1.2.25.01.02 1.15 1.15.7-.76z" style="stroke-width:0;fill:url(#linear-gradient-46)"/><path d="m36.55 104.46-1.2.25.01.02 1.15 1.15.7-.76z" style="stroke-width:0;fill:url(#linear-gradient-47)"/><path d="m44.13 112.1-.44.97 15 15.03.73-.56z" style="stroke-width:0;fill:url(#linear-gradient-48)"/><path d="m44.13 112.1-.44.97 15 15.03.73-.56z" style="stroke-width:0;fill:url(#linear-gradient-49)"/><path d="m44.13 112.1-.44.97 15 15.03.73-.56z" style="stroke-width:0;fill:url(#linear-gradient-50)"/><path d="m37.21 105.12-.7.76 7.18 7.19.44-.97z" style="stroke-width:0;fill:url(#linear-gradient-51)"/><path d="m37.21 105.12-.7.76 7.18 7.19.44-.97z" style="stroke-width:0;fill:url(#linear-gradient-52)"/><path d="m37.21 105.12-.7.76 7.18 7.19.44-.97z" style="stroke-width:0;fill:url(#linear-gradient-53)"/><path d="m37.21 105.12-.7.76 7.18 7.19.44-.97z" style="stroke-width:0;fill:url(#linear-gradient-54)"/><path d="m36.55 104.46-.04-.05-1.19.28.03.02z" class="cls-1"/><path d="m36.55 104.46-.04-.05-1.19.28.03.02z" style="stroke-width:0;fill:url(#linear-gradient-55)"/><path d="m89.42 113.71.96-1.94c-3.46.55-7.15 1.14-8.03 1.24l.04.03z" style="stroke-width:0;fill:url(#linear-gradient-56)"/><path d="m91.19 113.88 1.2-2.43c-.64.1-1.32.21-2.01.32l-.96 1.94z" style="stroke-width:0;fill:url(#linear-gradient-57)"/><path d="m91.19 113.88 1.2-2.43c-.64.1-1.32.21-2.01.32l-.96 1.94z" style="stroke-width:0;fill:url(#linear-gradient-58)"/><path d="m83.85 114.15 3.84 3.05 1.73-3.49-7.03-.67 1.45 1.12z" style="stroke-width:0;fill:url(#linear-gradient-59)"/><path d="m83.85 114.15 3.84 3.05 1.73-3.49-7.03-.67 1.45 1.12z" style="stroke-width:0;fill:url(#linear-gradient-60)"/><path d="m89.03 118.26 2.16-4.38-1.77-.17-1.73 3.49z" style="stroke-width:0;fill:url(#linear-gradient-61)"/><path d="m89.03 118.26 2.16-4.38-1.77-.17-1.73 3.49z" style="stroke-width:0;fill:url(#linear-gradient-62)"/><path d="m89.03 118.26 2.16-4.38-1.77-.17-1.73 3.49z" style="stroke-width:0;fill:url(#linear-gradient-63)"/><path d="m131.8 131.22-7.48-4.84-.14.02-3.85 7.25z" style="stroke-width:0;fill:url(#linear-gradient-64)"/><path d="m131.8 131.22-7.48-4.84-.14.02-3.85 7.25z" style="stroke-width:0;fill:url(#linear-gradient-65)"/><path d="m104.61 130.49 3.13 2.59 3.22 2.55 9.37-1.98 3.85-7.25-1.47.28z" style="stroke-width:0;fill:url(#linear-gradient-66)"/><path d="m104.61 130.49 3.13 2.59 3.22 2.55 9.37-1.98 3.85-7.25-1.47.28z" style="stroke-width:0;fill:url(#linear-gradient-67)"/><path d="m104.61 130.49 3.13 2.59 3.22 2.55 9.37-1.98 3.85-7.25-1.47.28z" style="stroke-width:0;fill:url(#linear-gradient-68)"/><path d="m121.5 124.47-10.17-6.82-.06.12z" style="stroke-width:0;fill:url(#linear-gradient-69)"/><path d="m121.5 124.47-10.17-6.82-.06.12z" style="stroke-width:0;fill:url(#linear-gradient-70)"/><path d="m124.3 126.35-.06-.05-.04.07z" style="stroke-width:0;fill:url(#linear-gradient-71)"/><path d="m124.3 126.35-.06-.05-.04.07z" style="stroke-width:0;fill:url(#linear-gradient-72)"/><path d="m104.72 130.08 17.99-3.4 1.49-.31.04-.07-2.74-1.83-10.23-6.7z" style="stroke-width:0;fill:url(#linear-gradient-73)"/><path d="m104.72 130.08 17.99-3.4 1.49-.31.04-.07-2.74-1.83-10.23-6.7z" style="stroke-width:0;fill:url(#linear-gradient-74)"/><path d="m104.72 130.08 17.99-3.4 1.49-.31.04-.07-2.74-1.83-10.23-6.7z" style="stroke-width:0;fill:url(#linear-gradient-75)"/><path d="m104.61 130.49-.08-.06-.04.08.01.01z" style="stroke-width:0;fill:url(#linear-gradient-76)"/><path d="m104.61 130.49-.08-.06-.04.08.01.01z" style="stroke-width:0;fill:url(#linear-gradient-77)"/><path d="m104.61 130.49-.08-.06-.04.08.01.01z" style="stroke-width:0;fill:url(#linear-gradient-78)"/><path d="m122.71 126.68-17.99 3.4-.19.35.08.06z" style="stroke-width:0;fill:url(#linear-gradient-79)"/><path d="m122.71 126.68-17.99 3.4-.19.35.08.06z" style="stroke-width:0;fill:url(#linear-gradient-80)"/><path d="m122.71 126.68-17.99 3.4-.19.35.08.06z" style="stroke-width:0;fill:url(#linear-gradient-81)"/><path d="m122.71 126.68-17.99 3.4-.19.35.08.06z" style="stroke-width:0;fill:url(#linear-gradient-82)"/><path d="M82.3 113.03h.03l-.01-.02h.04-.02l-8.1 4.28.01.01z" style="stroke-width:0;fill:url(#linear-gradient-83)"/><path d="M61.17 126.03v.19l.01-.01v.02l.09-.05v-.21z" style="stroke-width:0;fill:url(#linear-gradient-84)"/><path d="M61.17 126.03v.19l.01-.01v.02l.09-.05v-.21z" style="stroke-width:0;fill:url(#linear-gradient-85)"/><path d="m68.27 120.48 5.98-3.17-.02-.02-5.98 3.17z" style="stroke-width:0;fill:url(#linear-gradient-86)"/><path d="m68.27 120.48 5.98-3.17-.02-.02-5.98 3.17z" style="stroke-width:0;fill:url(#linear-gradient-87)"/><path d="m61.17 126.03.1-.06.01-1.78 6.99-3.71-.02-.02-7.03 3.73z" style="stroke-width:0;fill:url(#linear-gradient-88)"/><path d="m61.17 126.03.1-.06.01-1.78 6.99-3.71-.02-.02-7.03 3.73z" style="stroke-width:0;fill:url(#linear-gradient-89)"/><path d="m61.17 126.03.1-.06.01-1.78 6.99-3.71-.02-.02-7.03 3.73z" style="stroke-width:0;fill:url(#linear-gradient-90)"/><path d="M83.29 114.45c-.55-.81-.93-1.36-.96-1.42h-.03l-8.05 4.27c.3.31 1.04 1.19 1.09 1.39l7.96-4.24Z" style="stroke-width:0;fill:url(#linear-gradient-91)"/><path d="M83.29 114.45c-.55-.81-.93-1.36-.96-1.42h-.03l-8.05 4.27c.3.31 1.04 1.19 1.09 1.39l7.96-4.24Z" style="stroke-width:0;fill:url(#linear-gradient-92)"/><path d="m69.53 121.78 2.99-1.59-3.03 1.56z" style="stroke-width:0;fill:url(#linear-gradient-93)"/><path d="m69.53 121.78 2.99-1.59-3.03 1.56z" style="stroke-width:0;fill:url(#linear-gradient-94)"/><path d="M61.27 125.97v.21l8.26-4.4-.04-.03z" style="stroke-width:0;fill:url(#linear-gradient-95)"/><path d="M61.27 125.97v.21l8.26-4.4-.04-.03z" style="stroke-width:0;fill:url(#linear-gradient-96)"/><path d="M61.27 125.97v.21l8.26-4.4-.04-.03z" style="stroke-width:0;fill:url(#linear-gradient-97)"/><path d="m72.52 120.19 2.81-1.5c-.04-.2-.79-1.08-1.09-1.39l-5.98 3.17 1.22 1.27 3.03-1.56Z" style="stroke-width:0;fill:url(#linear-gradient-98)"/><path d="m72.52 120.19 2.81-1.5c-.04-.2-.79-1.08-1.09-1.39l-5.98 3.17 1.22 1.27 3.03-1.56Z" style="stroke-width:0;fill:url(#linear-gradient-99)"/><path d="m72.52 120.19 2.81-1.5c-.04-.2-.79-1.08-1.09-1.39l-5.98 3.17 1.22 1.27 3.03-1.56Z" style="stroke-width:0;fill:url(#linear-gradient-100)"/><path d="m61.27 125.97 8.22-4.22-1.22-1.27-6.99 3.71z" style="stroke-width:0;fill:url(#linear-gradient-101)"/><path d="m61.27 125.97 8.22-4.22-1.22-1.27-6.99 3.71z" style="stroke-width:0;fill:url(#linear-gradient-102)"/><path d="m61.27 125.97 8.22-4.22-1.22-1.27-6.99 3.71z" style="stroke-width:0;fill:url(#linear-gradient-103)"/><path d="m61.27 125.97 8.22-4.22-1.22-1.27-6.99 3.71z" style="stroke-width:0;fill:url(#linear-gradient-104)"/><path d="M82.33 113.03h.06l-.04-.02h-.04l.01.02Z" style="stroke-width:0;fill:url(#linear-gradient-105)"/><path d="M82.33 113.03h.06l-.04-.02h-.04l.01.02Z" style="stroke-width:0;fill:url(#linear-gradient-106)"/><path d="m83.84 114.16-1.45-1.12h-.06s.41.6.96 1.41z" style="stroke-width:0;fill:url(#linear-gradient-107)"/><path d="m83.84 114.16-1.45-1.12h-.06s.41.6.96 1.41z" style="stroke-width:0;fill:url(#linear-gradient-108)"/><path d="m83.84 114.16-1.45-1.12h-.06s.41.6.96 1.41z" style="stroke-width:0;fill:url(#linear-gradient-109)"/><path d="m107.56 166.13 1.38.16 2.37-19.86-1.31-1.59z" style="stroke-width:0;fill:url(#linear-gradient-110)"/><path d="m107.56 166.13 1.38.16 2.37-19.86-1.31-1.59z" style="stroke-width:0;fill:url(#linear-gradient-111)"/><path d="m111.02 135.66-.02.01.05.04-1.05 9.13 1.31 1.59 1.12-9.36z" style="stroke-width:0;fill:url(#linear-gradient-112)"/><path d="m111.02 135.66-.02.01.05.04-1.05 9.13 1.31 1.59 1.12-9.36z" style="stroke-width:0;fill:url(#linear-gradient-113)"/><path d="m111.02 135.66-.02.01.05.04-1.05 9.13 1.31 1.59 1.12-9.36z" style="stroke-width:0;fill:url(#linear-gradient-114)"/><path d="M61.17 126.22v.09-.09" style="stroke-width:0;fill:url(#linear-gradient-115)"/><path d="M61.17 126.22v.09-.09" style="stroke-width:0;fill:url(#linear-gradient-116)"/><path d="m59.42 127.54.83.84.2 1.48.58.58.14-4.14v-.09l-1.74 1.33Z" style="stroke-width:0;fill:url(#linear-gradient-117)"/><path d="m59.42 127.54.83.84.2 1.48.58.58.14-4.14v-.09l-1.74 1.33Z" style="stroke-width:0;fill:url(#linear-gradient-118)"/><path d="m59.42 127.54.83.84.2 1.48.58.58.14-4.14v-.09l-1.74 1.33Z" style="stroke-width:0;fill:url(#linear-gradient-119)"/><path d="M58.54 148.96v.89l.19.12v-.81z" style="stroke-width:0;fill:url(#linear-gradient-120)"/><path d="M58.54 148.96v.89l.19.12v-.81z" style="stroke-width:0;fill:url(#linear-gradient-121)"/><path d="m58.73 149.97 1.38.88h.19l-1.57-1.69z" style="stroke-width:0;fill:url(#linear-gradient-122)"/><path d="m58.73 149.97 1.38.88h.19l-1.57-1.69z" style="stroke-width:0;fill:url(#linear-gradient-123)"/><path d="m58.73 149.97 1.38.88h.19l-1.57-1.69z" style="stroke-width:0;fill:url(#linear-gradient-124)"/><path d="m59.42 127.54-.73.56 1.76 1.76-.2-1.48z" style="stroke-width:0;fill:url(#linear-gradient-125)"/><path d="m59.42 127.54-.73.56 1.76 1.76-.2-1.48z" style="stroke-width:0;fill:url(#linear-gradient-126)"/><path d="m59.42 127.54-.73.56 1.76 1.76-.2-1.48z" style="stroke-width:0;fill:url(#linear-gradient-127)"/><path d="m59.42 127.54-.73.56 1.76 1.76-.2-1.48z" style="stroke-width:0;fill:url(#linear-gradient-128)"/><path d="m61.18 126.21-.01.01.01.01z" style="stroke-width:0;fill:url(#linear-gradient-129)"/><path d="m61.18 126.21-.01.01.01.01z" style="stroke-width:0;fill:url(#linear-gradient-130)"/><path d="m61.18 126.21-.01.01.01.01z" style="stroke-width:0;fill:url(#linear-gradient-131)"/><path d="m142.65 79.97.01-.01h-.03z" style="stroke-width:0;fill:url(#linear-gradient-132)"/><path d="m142.65 79.97.01-.01h-.03z" style="stroke-width:0;fill:url(#linear-gradient-133)"/><path d="m162 45.92-.26-1.12-2.1 3.51z" style="stroke-width:0;fill:url(#linear-gradient-134)"/><path d="m162 45.92-.26-1.12-2.1 3.51z" style="stroke-width:0;fill:url(#linear-gradient-135)"/><path d="m149.94 64.45 1.52.68 10.77-18.16-.23-1.05-2.36 2.39z" style="stroke-width:0;fill:url(#linear-gradient-136)"/><path d="m149.94 64.45 1.52.68 10.77-18.16-.23-1.05-2.36 2.39z" style="stroke-width:0;fill:url(#linear-gradient-137)"/><path d="m149.94 64.45 1.52.68 10.77-18.16-.23-1.05-2.36 2.39z" style="stroke-width:0;fill:url(#linear-gradient-138)"/><path d="m142.43 76.97 1.76.42 7.27-12.26-1.52-.68z" style="stroke-width:0;fill:url(#linear-gradient-139)"/><path d="m142.43 76.97 1.76.42 7.27-12.26-1.52-.68z" style="stroke-width:0;fill:url(#linear-gradient-140)"/><path d="m142.43 76.97 1.76.42 7.27-12.26-1.52-.68z" style="stroke-width:0;fill:url(#linear-gradient-141)"/><path d="m142.43 76.97 1.76.42 7.27-12.26-1.52-.68z" style="stroke-width:0;fill:url(#linear-gradient-142)"/><path d="m132.69 77.51-.11.21 10.05 2.24-.5-.31z" style="stroke-width:0;fill:url(#linear-gradient-145)"/><path d="m132.69 77.51-.11.21 10.05 2.24-.5-.31z" style="stroke-width:0;fill:url(#linear-gradient-146)"/><path d="m132.74 77.41-.05.1 9.44 2.14-1.19-.74z" style="stroke-width:0;fill:url(#linear-gradient-150)"/><path d="m132.74 77.41-.05.1 9.44 2.14-1.19-.74z" style="stroke-width:0;fill:url(#linear-gradient-151)"/><path d="m132.74 77.41-.05.1 9.44 2.14-1.19-.74z" style="stroke-width:0;fill:url(#linear-gradient-152)"/><path d="m144.19 77.39-1.14 1.91h.01l1.15-1.9z" style="stroke-width:0;fill:url(#linear-gradient-153)"/><path d="m144.19 77.39-1.14 1.91h.01l1.15-1.9z" style="stroke-width:0;fill:url(#linear-gradient-154)"/><path d="m144.19 77.39-1.14 1.91h.01l1.15-1.9z" style="stroke-width:0;fill:url(#linear-gradient-155)"/><path d="m144.19 77.39-1.14 1.91h.01l1.15-1.9z" style="stroke-width:0;fill:url(#linear-gradient-156)"/><path d="m139.98 78.32.24-.41-6.93-1.52-.55 1.02 8.2 1.5z" style="stroke-width:0;fill:url(#linear-gradient-157)"/><path d="m139.98 78.32.24-.41-6.93-1.52-.55 1.02 8.2 1.5z" style="stroke-width:0;fill:url(#linear-gradient-158)"/><path d="m139.98 78.32.24-.41-6.93-1.52-.55 1.02 8.2 1.5z" style="stroke-width:0;fill:url(#linear-gradient-159)"/><path d="m139.98 78.32.24-.41-6.93-1.52-.55 1.02 8.2 1.5z" style="stroke-width:0;fill:url(#linear-gradient-160)"/><path d="m142.13 79.65.5.31h.03l.1-.17z" style="stroke-width:0;fill:url(#linear-gradient-161)"/><path d="m142.13 79.65.5.31h.03l.1-.17z" style="stroke-width:0;fill:url(#linear-gradient-162)"/><path d="m142.13 79.65.5.31h.03l.1-.17z" style="stroke-width:0;fill:url(#linear-gradient-163)"/><path d="m142.13 79.65.63.14.29-.49-2.11-.39z" style="stroke-width:0;fill:url(#linear-gradient-164)"/><path d="m142.13 79.65.63.14.29-.49-2.11-.39z" style="stroke-width:0;fill:url(#linear-gradient-165)"/><path d="m142.13 79.65.63.14.29-.49-2.11-.39z" style="stroke-width:0;fill:url(#linear-gradient-166)"/><path d="m142.13 79.65.63.14.29-.49-2.11-.39z" style="stroke-width:0;fill:url(#linear-gradient-167)"/><path d="m142.43 76.97-.76 1.26-1.45-.32-.24.41.96.59 2.11.39 1.14-1.91z" style="stroke-width:0;fill:url(#linear-gradient-168)"/><path d="m142.43 76.97-.76 1.26-1.45-.32-.24.41.96.59 2.11.39 1.14-1.91z" style="stroke-width:0;fill:url(#linear-gradient-169)"/><path d="m142.43 76.97-.76 1.26-1.45-.32-.24.41.96.59 2.11.39 1.14-1.91z" style="stroke-width:0;fill:url(#linear-gradient-170)"/><path d="m142.43 76.97-.76 1.26-1.45-.32-.24.41.96.59 2.11.39 1.14-1.91z" style="stroke-width:0;fill:url(#linear-gradient-171)"/><path d="m142.43 76.97-.76 1.26-1.45-.32-.24.41.96.59 2.11.39 1.14-1.91z" style="stroke-width:0;fill:url(#linear-gradient-172)"/><path d="m162.96 42.98-15.04-35.3-1.77.19 15.61 36.89z" style="stroke-width:0;fill:url(#linear-gradient-173)"/><path d="m162.96 42.98-15.04-35.3-1.77.19 15.61 36.89z" style="stroke-width:0;fill:url(#linear-gradient-174)"/><path d="M226.45 141.9V64.6h22.17v14.08h.9c3.45-8.69 10.34-15.88 22.77-15.88 14.83 0 25.17 10.34 25.17 29.06v50.03h-22.17V94.85c0-9.74-4.34-14.98-13.03-14.98-6.89 0-13.63 3.74-13.63 11.23v50.78h-22.17ZM375.8 141.9c-9.14 0-15.13-4.94-16.03-13.63h-.75c-2.7 10.04-11.68 15.43-23.52 15.43-14.98 0-24.87-8.54-24.87-23.07 0-16.18 12.13-23.82 34.75-23.82h12.43v-3.89c0-9.14-3.9-13.93-14.08-13.93-9.29 0-14.68 4.05-18.87 9.74l-12.13-10.79c5.09-8.69 16.33-15.13 33.55-15.13 21.12 0 33.7 9.74 33.7 29.21v33.85h8.54v16.03h-12.73Zm-17.97-23.82v-9.29H346c-8.84 0-13.63 3.15-13.63 9.14v3c0 5.39 4.49 8.24 11.53 8.24 7.79 0 13.93-3.9 13.93-11.08ZM439.92 141.9c-16.03 0-23.67-9.29-23.67-22.32V81.83h-20.97V64.6h13.63c6.59 0 9.14-2.25 9.14-9.14V37.33h20.37v27.26h30.11v17.23h-30.11v42.84h30.11v17.23h-28.61ZM489.2 124.67h24.57V81.83H489.2V64.6h46.74v60.07h22.77v17.23H489.2zm22.32-80.44v-4.34c0-5.99 3.45-10.49 13.33-10.49s13.33 4.49 13.33 10.49v4.34c0 5.84-3.45 10.49-13.33 10.49s-13.33-4.64-13.33-10.49M593.01 141.9 565.3 64.6h23.37l10.04 33.11 7.34 25.77h1.2l7.34-25.77 10.04-33.11h22.47l-27.71 77.3h-26.36ZM654.87 103.55c0-25.32 14.38-40.74 37.6-40.74s37.3 15.13 37.3 39.25v6.59h-52.88V110c0 9.89 6.44 16.63 18.27 16.63 9.14 0 15.58-3.9 20.37-9.59l11.98 13.03c-5.99 7.34-16.48 13.63-33.11 13.63-25.92 0-39.55-15.43-39.55-40.15Zm22.03-8.54v1.2h31.16v-1.2c0-10.04-5.84-16.33-15.43-16.33s-15.73 6.44-15.73 16.33M743.7 124.67h23.67V48.28H743.7V31.05h45.84v93.62h23.67v17.23H743.7zM833.73 124.67h24.57V81.83h-24.57V64.6h46.74v60.07h22.77v17.23h-69.51zm22.32-80.44v-4.34c0-5.99 3.45-10.49 13.33-10.49s13.33 4.49 13.33 10.49v4.34c0 5.84-3.45 10.49-13.33 10.49s-13.33-4.64-13.33-10.49M915.52 141.9V64.6h22.17v14.08h.9c3.45-8.69 10.34-15.88 22.77-15.88 14.83 0 25.17 10.34 25.17 29.06v50.03h-22.17V94.85c0-9.74-4.34-14.98-13.03-14.98-6.89 0-13.63 3.74-13.63 11.23v50.78h-22.17ZM1001.66 31.05h22.17v62.92h1.05l10.34-12.13 16.18-17.23h25.47l-29.96 30.56 33.11 46.74h-26.36l-22.47-34.15-7.34 7.34v26.81h-22.17V31.05Z" class="cls-77"/></svg>