<svg width="477" height="171" viewBox="0 0 477 171" fill="none" xmlns="http://www.w3.org/2000/svg">
<mask id="mask0_545_2" style="mask-type:alpha" maskUnits="userSpaceOnUse" x="17" y="17" width="145" height="137">
<path fill-rule="evenodd" clip-rule="evenodd" d="M132.207 17L77.5861 116.31H107.379L162 17H132.207Z" fill="white"/>
<path fill-rule="evenodd" clip-rule="evenodd" d="M47.7929 17L80.0687 74.1034L65.1722 103.897L17.9998 17H47.7929Z" fill="white"/>
<path fill-rule="evenodd" clip-rule="evenodd" d="M104.897 128.724H75.1036L90.0001 153.552L104.897 128.724Z" fill="white"/>
<path fill-rule="evenodd" clip-rule="evenodd" d="M139.656 153.552H109.863L124.76 128.724L139.656 153.552Z" fill="white"/>
<path fill-rule="evenodd" clip-rule="evenodd" d="M159.519 116.31H129.725L144.622 91.4829L159.519 116.31Z" fill="white"/>
<path fill-rule="evenodd" clip-rule="evenodd" d="M104.897 17H75.1036L90.0001 41.8276L104.897 17Z" fill="white"/>
</mask>
<g mask="url(#mask0_545_2)">
<rect x="13.1233" y="7.24667" width="156.059" height="156.059" fill="url(#paint0_linear_545_2)"/>
</g>
<path d="M232.896 120L203.52 52.8H217.056L243.264 113.568H235.488L261.984 52.8H274.464L245.184 120H232.896ZM284.534 139.296C282.038 139.296 279.542 138.88 277.046 138.048C274.55 137.216 272.47 136.064 270.805 134.592L275.605 125.76C276.822 126.848 278.198 127.712 279.734 128.352C281.27 128.992 282.838 129.312 284.438 129.312C286.614 129.312 288.374 128.768 289.718 127.68C291.062 126.592 292.31 124.768 293.462 122.208L296.438 115.488L297.398 114.048L316.79 68.736H328.31L304.31 124.128C302.71 127.968 300.918 131.008 298.934 133.248C297.014 135.488 294.838 137.056 292.406 137.952C290.038 138.848 287.414 139.296 284.534 139.296ZM295.094 121.824L271.957 68.736H284.438L303.254 112.992L295.094 121.824ZM357.506 120.672C353.154 120.672 349.314 119.872 345.986 118.272C342.658 116.608 340.066 114.112 338.21 110.784C336.354 107.392 335.426 103.136 335.426 98.016V68.736H347.426V96.384C347.426 100.992 348.45 104.448 350.498 106.752C352.61 108.992 355.586 110.112 359.426 110.112C362.242 110.112 364.674 109.536 366.722 108.384C368.834 107.232 370.466 105.504 371.618 103.2C372.834 100.896 373.442 98.048 373.442 94.656V68.736H385.442V120H374.018V106.176L376.034 110.4C374.306 113.728 371.778 116.288 368.45 118.08C365.122 119.808 361.474 120.672 357.506 120.672ZM430.241 68.16C434.337 68.16 437.985 68.96 441.185 70.56C444.449 72.16 447.009 74.624 448.865 77.952C450.721 81.216 451.649 85.44 451.649 90.624V120H439.649V92.16C439.649 87.616 438.561 84.224 436.385 81.984C434.273 79.744 431.297 78.624 427.457 78.624C424.641 78.624 422.145 79.2 419.969 80.352C417.793 81.504 416.097 83.232 414.881 85.536C413.729 87.776 413.153 90.624 413.153 94.08V120H401.153V48.768H413.153V82.56L410.561 78.336C412.353 75.072 414.945 72.576 418.337 70.848C421.793 69.056 425.761 68.16 430.241 68.16Z" fill="black"/>
<defs>
<linearGradient id="paint0_linear_545_2" x1="13.1233" y1="7.24667" x2="169.182" y2="163.306" gradientUnits="userSpaceOnUse">
<stop stop-color="#720575"/>
<stop offset="1" stop-color="#79CDFF"/>
</linearGradient>
</defs>
</svg>
