<svg width="394" height="171" viewBox="0 0 394 171" fill="none" xmlns="http://www.w3.org/2000/svg">
<rect width="394" height="171" fill="white"/>
<mask id="mask0_545_2" style="mask-type:alpha" maskUnits="userSpaceOnUse" x="17" y="17" width="145" height="137">
<path fill-rule="evenodd" clip-rule="evenodd" d="M132.207 17L77.5861 116.31H107.379L162 17H132.207Z" fill="white"/>
<path fill-rule="evenodd" clip-rule="evenodd" d="M47.7929 17L80.0687 74.1034L65.1722 103.897L17.9998 17H47.7929Z" fill="white"/>
<path fill-rule="evenodd" clip-rule="evenodd" d="M104.897 128.724H75.1036L90.0001 153.552L104.897 128.724Z" fill="white"/>
<path fill-rule="evenodd" clip-rule="evenodd" d="M139.656 153.552H109.863L124.76 128.724L139.656 153.552Z" fill="white"/>
<path fill-rule="evenodd" clip-rule="evenodd" d="M159.519 116.31H129.725L144.622 91.4829L159.519 116.31Z" fill="white"/>
<path fill-rule="evenodd" clip-rule="evenodd" d="M104.897 17H75.1036L90.0001 41.8276L104.897 17Z" fill="white"/>
</mask>
<g mask="url(#mask0_545_2)">
<rect x="13.1233" y="7.24667" width="156.059" height="156.059" fill="url(#paint0_linear_545_2)"/>
</g>
<path d="M225.264 108L205.68 63.2H214.704L232.176 103.712H226.992L244.656 63.2H252.976L233.456 108H225.264ZM259.689 120.864C258.025 120.864 256.361 120.587 254.697 120.032C253.033 119.477 251.646 118.709 250.537 117.728L253.737 111.84C254.548 112.565 255.465 113.141 256.489 113.568C257.513 113.995 258.558 114.208 259.625 114.208C261.076 114.208 262.249 113.845 263.145 113.12C264.041 112.395 264.873 111.179 265.641 109.472L267.625 104.992L268.265 104.032L281.193 73.824H288.873L272.873 110.752C271.806 113.312 270.612 115.339 269.289 116.832C268.009 118.325 266.558 119.371 264.937 119.968C263.358 120.565 261.609 120.864 259.689 120.864ZM266.729 109.216L251.305 73.824H259.625L272.169 103.328L266.729 109.216ZM308.337 108.448C305.436 108.448 302.876 107.915 300.657 106.848C298.438 105.739 296.71 104.075 295.473 101.856C294.236 99.5947 293.617 96.7573 293.617 93.344V73.824H301.617V92.256C301.617 95.328 302.3 97.632 303.665 99.168C305.073 100.661 307.057 101.408 309.617 101.408C311.494 101.408 313.116 101.024 314.481 100.256C315.889 99.488 316.977 98.336 317.745 96.8C318.556 95.264 318.961 93.3653 318.961 91.104V73.824H326.961V108H319.345V98.784L320.689 101.6C319.537 103.819 317.852 105.525 315.633 106.72C313.414 107.872 310.982 108.448 308.337 108.448ZM356.828 73.44C359.558 73.44 361.99 73.9733 364.124 75.04C366.3 76.1067 368.006 77.7493 369.244 79.968C370.481 82.144 371.1 84.96 371.1 88.416V108H363.1V89.44C363.1 86.4107 362.374 84.1493 360.924 82.656C359.516 81.1627 357.532 80.416 354.972 80.416C353.094 80.416 351.43 80.8 349.98 81.568C348.529 82.336 347.398 83.488 346.588 85.024C345.82 86.5173 345.436 88.416 345.436 90.72V108H337.436V60.512H345.436V83.04L343.708 80.224C344.902 78.048 346.63 76.384 348.892 75.232C351.196 74.0373 353.841 73.44 356.828 73.44Z" fill="black"/>
<defs>
<linearGradient id="paint0_linear_545_2" x1="13.1233" y1="7.24667" x2="169.182" y2="163.306" gradientUnits="userSpaceOnUse">
<stop stop-color="#720575"/>
<stop offset="1" stop-color="#79CDFF"/>
</linearGradient>
</defs>
</svg>
