<svg width="573" height="171" viewBox="0 0 573 171" fill="none" xmlns="http://www.w3.org/2000/svg">
<mask id="mask0_545_2" style="mask-type:alpha" maskUnits="userSpaceOnUse" x="17" y="17" width="145" height="137">
<path fill-rule="evenodd" clip-rule="evenodd" d="M132.207 17L77.5861 116.31H107.379L162 17H132.207Z" fill="white"/>
<path fill-rule="evenodd" clip-rule="evenodd" d="M47.7929 17L80.0687 74.1034L65.1722 103.897L17.9998 17H47.7929Z" fill="white"/>
<path fill-rule="evenodd" clip-rule="evenodd" d="M104.897 128.724H75.1036L90.0001 153.552L104.897 128.724Z" fill="white"/>
<path fill-rule="evenodd" clip-rule="evenodd" d="M139.656 153.552H109.863L124.76 128.724L139.656 153.552Z" fill="white"/>
<path fill-rule="evenodd" clip-rule="evenodd" d="M159.519 116.31H129.725L144.622 91.4829L159.519 116.31Z" fill="white"/>
<path fill-rule="evenodd" clip-rule="evenodd" d="M104.897 17H75.1036L90.0001 41.8276L104.897 17Z" fill="white"/>
</mask>
<g mask="url(#mask0_545_2)">
<rect x="13.1233" y="7.24667" width="156.059" height="156.059" fill="url(#paint0_linear_545_2)"/>
</g>
<path d="M253.528 132L214.36 42.4H232.408L267.352 123.424H256.984L292.312 42.4H308.952L269.912 132H253.528ZM322.378 157.728C319.05 157.728 315.722 157.173 312.394 156.064C309.066 154.955 306.293 153.419 304.074 151.456L310.474 139.68C312.095 141.131 313.93 142.283 315.978 143.136C318.026 143.989 320.117 144.416 322.25 144.416C325.151 144.416 327.498 143.691 329.29 142.24C331.082 140.789 332.746 138.357 334.282 134.944L338.25 125.984L339.53 124.064L365.386 63.648H380.746L348.746 137.504C346.613 142.624 344.223 146.677 341.578 149.664C339.018 152.651 336.117 154.741 332.874 155.936C329.717 157.131 326.218 157.728 322.378 157.728ZM336.458 134.432L305.61 63.648H322.25L347.338 122.656L336.458 134.432ZM419.674 132.896C413.871 132.896 408.751 131.829 404.314 129.696C399.877 127.477 396.421 124.149 393.946 119.712C391.471 115.189 390.234 109.515 390.234 102.688V63.648H406.234V100.512C406.234 106.656 407.599 111.264 410.33 114.336C413.146 117.323 417.114 118.816 422.234 118.816C425.989 118.816 429.231 118.048 431.962 116.512C434.778 114.976 436.954 112.672 438.49 109.6C440.111 106.528 440.922 102.731 440.922 98.208V63.648H456.922V132H441.69V113.568L444.378 119.2C442.074 123.637 438.703 127.051 434.266 129.44C429.829 131.744 424.965 132.896 419.674 132.896ZM516.655 62.88C522.116 62.88 526.98 63.9467 531.247 66.08C535.599 68.2133 539.012 71.4987 541.487 75.936C543.962 80.288 545.199 85.92 545.199 92.832V132H529.199V94.88C529.199 88.8213 527.748 84.2987 524.847 81.312C522.031 78.3253 518.063 76.832 512.943 76.832C509.188 76.832 505.86 77.6 502.959 79.136C500.058 80.672 497.796 82.976 496.175 86.048C494.639 89.0347 493.871 92.832 493.871 97.44V132H477.871V37.024H493.871V82.08L490.415 76.448C492.804 72.096 496.26 68.768 500.783 66.464C505.391 64.0747 510.682 62.88 516.655 62.88Z" fill="black"/>
<defs>
<linearGradient id="paint0_linear_545_2" x1="13.1233" y1="7.24667" x2="169.182" y2="163.306" gradientUnits="userSpaceOnUse">
<stop stop-color="#720575"/>
<stop offset="1" stop-color="#79CDFF"/>
</linearGradient>
</defs>
</svg>
